<svg xmlns="http://www.w3.org/2000/svg" width="256" height="256" fill="none" stroke="#293c47" xmlns:v="https://vecta.io/nano"><path d="M193.095 61.983l-1.487 3.868 4.063.818c17.435 3.513 30.562 18.908 30.562 37.319 0 21.033-17.097 38.096-38.214 38.096H68.092c-23.985 0-43.428-19.403-43.428-43.295 0-18.87 12.113-34.933 29.009-40.86l2.435-.854-.096-2.578-.063-2.502C55.949 25.21 77.707 3.5 104.592 3.5c18.028 0 33.745 9.756 42.171 24.316l1.871 3.233 3.105-2.078c4.396-2.942 9.719-4.673 15.423-4.673 15.349 0 27.786 12.416 27.786 27.697 0 3.522-.666 6.899-1.853 9.988z" fill="#fff" stroke-width="7"/><g stroke-width="6"><path d="M143.898 159.54h73.143M24.688 184.911h83.087"/><path d="M145.75 145.183v72.276m-36.742-72.276v70.842"/><path d="M112 214l-39.615.322V237M146 195h24 20v40"/></g><path d="M198.286 243.841a7.66 7.66 0 0 1-7.659 7.659 7.66 7.66 0 0 1-7.658-7.659 7.66 7.66 0 0 1 7.658-7.658 7.66 7.66 0 0 1 7.659 7.658zM39.818 184.889a7.66 7.66 0 0 1-7.659 7.659 7.66 7.66 0 0 1-7.659-7.659 7.66 7.66 0 0 1 7.659-7.659 7.66 7.66 0 0 1 7.659 7.659zm193.007-24.381a7.66 7.66 0 0 1-7.658 7.659 7.66 7.66 0 0 1-7.659-7.659 7.66 7.66 0 0 1 7.659-7.658 7.66 7.66 0 0 1 7.658 7.658zM153.5 226a7.5 7.5 0 1 1-15 0 7.5 7.5 0 1 1 15 0zm-74 20a7.5 7.5 0 1 1-15 0 7.5 7.5 0 1 1 15 0z" fill="#fff" stroke-width="5"/></svg>