<svg xmlns="http://www.w3.org/2000/svg" width="256" height="256" fill="#fff" xmlns:v="https://vecta.io/nano"><path d="M184.313 53.555v20.133c0 3.206-1.808 6.731-6.139 10.39-4.315 3.645-10.767 7.086-19.045 10.043-16.526 5.904-39.586 9.621-65.223 9.621s-48.696-3.717-65.222-9.621c-8.278-2.957-14.73-6.398-19.045-10.043C5.308 80.419 3.5 76.893 3.5 73.687V53.555c0-3.206 1.808-6.731 6.139-10.39 4.315-3.645 10.767-7.086 19.045-10.043C45.21 27.217 68.27 23.5 93.906 23.5s48.697 3.717 65.223 9.621c8.278 2.957 14.73 6.398 19.045 10.043 4.331 3.659 6.139 7.185 6.139 10.39zm-18.298 59.795c6.556-2.334 12.811-5.184 18.298-8.594v36.041c0 3.206-1.808 6.732-6.139 10.391-4.315 3.645-10.767 7.085-19.045 10.043-16.526 5.904-39.586 9.621-65.223 9.621s-48.696-3.717-65.222-9.621c-8.278-2.958-14.73-6.398-19.045-10.043-4.331-3.659-6.139-7.185-6.139-10.391v-36.023c5.494 3.419 11.751 6.245 18.298 8.576 19.289 6.877 44.774 10.815 72.108 10.815s52.819-3.938 72.109-10.815zm0 67.109c6.556-2.334 12.811-5.184 18.298-8.594v29.331c0 3.205-1.808 6.731-6.139 10.39-4.315 3.645-10.767 7.085-19.045 10.043-16.526 5.904-39.586 9.621-65.223 9.621s-48.696-3.717-65.222-9.621c-8.278-2.958-14.73-6.398-19.045-10.043-4.331-3.659-6.139-7.185-6.139-10.39v-29.313c5.494 3.419 11.751 6.245 18.298 8.576 19.289 6.877 44.774 10.815 72.108 10.815s52.819-3.938 72.109-10.815z" stroke="#293c47" stroke-width="7"/><circle cx="188.163" cy="153.427" r="23.948"/><path d="M252.338 129.465l-.705-1.913c-1.006-2.472-2.163-4.869-3.459-7.205l-1.289-2.217c-1.754-2.917-3.722-5.679-5.88-8.286-.674-.807-1.901-1.193-3.122-.805h-.001l-15.628 4.959-1.741.552-1.449-1.112c-3.519-2.701-7.403-4.954-11.544-6.655l-1.696-.696-.393-1.792-3.506-15.993 50.413 41.163zm0 0c.371 1.006.09 2.235-.849 3.076l-.008.008m.857-3.084l-.857 3.084m0 0l-.008.007m.008-.007l-.008.007m0 0l-12.149 11.038-1.357 1.233m13.506-12.271l-13.506 12.271m0 0l.241 1.818m-.241-1.818l.241 1.818m0 0c.29 2.181.447 4.409.447 6.655a50.56 50.56 0 0 1-.447 6.656l-.241 1.818m.241-15.129l-.241 15.129m0 0l1.357 1.233m-1.357-1.233l1.357 1.233m0 0l12.149 11.038.008.007m-12.157-11.045l12.157 11.045m0 0l.008.007m-.008-.007l.008.007m0 0c.939.842 1.22 2.071.849 3.077-1.165 3.144-2.57 6.165-4.192 9.09l-1.288 2.217c-1.756 2.918-3.725 5.681-5.884 8.29l-.005.006m10.52-22.68l-10.52 22.68m0 0l-.005.005m.005-.005l-.005.005m0 0c-.654.798-1.861 1.187-3.109.79h-.001m3.11-.79l-3.11.79m0 0l-15.628-4.959-1.741-.552m17.369 5.511l-17.369-5.511m0 0l-1.449 1.112m1.449-1.112l-1.449 1.112m0 0c-3.519 2.701-7.403 4.954-11.544 6.654l-1.696.697m13.24-7.351l-13.24 7.351m0 0l-.393 1.791m.393-1.791l-.393 1.791m0 0l-3.506 15.994c-.283 1.278-1.212 2.115-2.251 2.285l-.012.002m5.769-18.281l-5.769 18.281m0 0c-3.683.613-7.475.933-11.35.933a69.08 69.08 0 0 1-11.35-.933l-.013-.002m22.713.002l-22.713-.002m0 0c-1.04-.17-1.969-1.008-2.25-2.285l-3.507-15.994-.393-1.791m6.15 20.07l-6.15-20.07m0 0l-1.696-.697m1.696.697l-1.696-.697m0 0c-4.141-1.7-8.025-3.953-11.544-6.654l-1.453-1.115m12.997 7.769l-12.997-7.769m0 0l-1.744.557m1.744-.557l-1.744.557m0 0l-15.594 4.985c-1.224.387-2.449.001-3.122-.806-2.158-2.607-4.126-5.368-5.88-8.285l-1.288-2.217c-1.624-2.926-3.029-5.947-4.194-9.093-.369-1.005-.088-2.233.85-3.074l.008-.007m29.22 18.497l-29.22-18.497m0 0l.008-.007m-.008.007l.008-.007m0 0l12.149-11.038 1.355-1.231m-13.504 12.269l13.504-12.269m0 0l-.238-1.815m.238 1.815l-.238-1.815m0 0a51.45 51.45 0 0 1-.447-6.689c0-2.246.157-4.474.446-6.655l.242-1.818m-.241 15.162l.241-15.162m0 0l-1.358-1.233m1.358 1.233l-1.358-1.233m0 0l-12.149-11.038-.008-.007m12.157 11.045l-12.157-11.045m0 0l-.008-.008m.008.008l-.008-.008m0 0c-.938-.841-1.219-2.069-.85-3.074 1.165-3.145 2.571-6.167 4.194-9.092l1.288-2.217c1.755-2.918 3.724-5.682 5.884-8.29l.004-.006m-10.52 22.679l10.52-22.679m0 0l.005-.006m-.005.006l.005-.006m0 0c.655-.797 1.861-1.186 3.109-.789h.001m-3.11.789l3.11-.789m0 0l15.628 4.959 1.741.552m-17.369-5.511l17.369 5.511m0 0l1.449-1.112m-1.449 1.112l1.449-1.112m0 0c3.519-2.701 7.403-4.954 11.544-6.655l1.696-.696m-13.24 7.351l13.24-7.351m0 0l.393-1.792m-.393 1.792l.393-1.792m0 0l3.507-15.993c.282-1.277 1.211-2.115 2.25-2.284l.019-.003m-5.776 18.281l5.776-18.281m0 0l.018-.003m-.018.003l.018-.003m0 0c3.667-.637 7.45-.957 11.326-.957s7.667.32 11.35.933l.012.002m-22.688.022l22.688-.022m0 0c1.039.169 1.968 1.007 2.25 2.282l-2.25-2.282zm-11.362 93.195c6.879 0 13.478-2.728 18.345-7.587s7.601-11.451 7.601-18.325-2.735-13.465-7.601-18.324-11.466-7.588-18.345-7.588-13.479 2.729-18.345 7.588a25.89 25.89 0 0 0-7.602 18.324c0 6.874 2.735 13.466 7.602 18.325a25.96 25.96 0 0 0 18.345 7.587z" stroke="#293c47" stroke-width="7"/></svg>