<?xml version="1.0" encoding="UTF-8" standalone="no"?>
<!-- Created with Inkscape (http://www.inkscape.org/) -->

<svg
   width="158.74998mm"
   height="83.343742mm"
   viewBox="0 0 158.74998 83.343742"
   version="1.1"
   id="svg1"
   xml:space="preserve"
   xmlns:inkscape="http://www.inkscape.org/namespaces/inkscape"
   xmlns:sodipodi="http://sodipodi.sourceforge.net/DTD/sodipodi-0.dtd"
   xmlns="http://www.w3.org/2000/svg"
   xmlns:svg="http://www.w3.org/2000/svg"><sodipodi:namedview
     id="namedview1"
     pagecolor="#ffffff"
     bordercolor="#000000"
     borderopacity="0.25"
     inkscape:showpageshadow="2"
     inkscape:pageopacity="0.0"
     inkscape:pagecheckerboard="0"
     inkscape:deskcolor="#d1d1d1"
     inkscape:document-units="mm" /><defs
     id="defs1" /><g
     inkscape:label="Layer 1"
     inkscape:groupmode="layer"
     id="layer1"
     inkscape:export-filename="LightLogo_OG.svg"
     inkscape:export-xdpi="96"
     inkscape:export-ydpi="96"
     transform="translate(-28.853814,-117.00778)"><g
       style="fill:none"
       id="g1"
       transform="matrix(0.26458333,0,0,0.26458333,25.078391,121.41243)"><path
         fill="#293c47"
         d="M 14.269318,-16.647538 H 614.26932 V 298.35247 H 14.269318 Z"
         id="path1"
         inkscape:label="path1"
         style="stroke-width:1.25499" /><path
         d="m 123.48715,45.343822 -83.984003,44.268 v 96.463998 l 83.984003,44.268 86.016,-44.268 V 89.611822 Z"
         stroke="#f4f6f6"
         stroke-width="5"
         id="path2"
         style="display:inline" /><path
         d="M 68.164147,185.34382 V 92.413822 h 10.918 V 133.73682 L 118.12015,92.413822 h 13.203 l -39.863003,41.830998 43.798003,51.099 h -14.282 l -41.894003,-50.019 v 50.019 z m 79.797003,-41.704 v 41.704 h -10.791 V 92.413822 h 19.488 c 6.813,0 11.827,0.36 15.044,1.079 3.217,0.719 6.009,1.904 8.379,3.555 2.962,2.116 5.268,5.014998 6.918,8.695998 1.693,3.682 2.54,7.765 2.54,12.251 0,4.486 -0.847,8.569 -2.54,12.251 -1.65,3.682 -3.956,6.58 -6.918,8.697 -2.37,1.692 -5.163,2.898 -8.379,3.618 -3.174,0.719 -8.189,1.079 -15.044,1.079 h -3.111 z m 0,-10.029 h 5.586 c 9.48,0 15.848,-1.1 19.107,-3.301 3.301,-2.243 4.951,-6.136 4.951,-11.68 0,-5.924 -1.693,-10.093 -5.078,-12.505 -3.343,-2.412 -9.67,-3.618 -18.98,-3.618 h -5.586 v 31.103 z m 96.448,34.924 h 5.962 c 9.668,0 16.364,-0.411 20.088,-1.235 3.724,-0.859 6.821,-2.31 9.292,-4.351 3.223,-2.685 5.676,-6.14 7.358,-10.366 1.683,-4.261 2.525,-9.131 2.525,-14.609 0,-5.514 -0.842,-10.348 -2.525,-14.502 -1.647,-4.189 -4.099,-7.645 -7.358,-10.366 -2.471,-2.077 -5.622,-3.545 -9.453,-4.404 -3.796,-0.895 -10.438,-1.343 -19.927,-1.343 h -5.962 z m -9.453,8.809 V 98.710822 h 15.093 c 11.172,0 19.031,0.573 23.579,1.718998 4.583,1.11 8.594,2.99 12.031,5.64 4.512,3.473 7.932,7.913 10.259,13.32 2.327,5.407 3.491,11.637 3.491,18.691 0,7.019 -1.163,13.231 -3.491,18.638 -2.292,5.371 -5.711,9.793 -10.259,13.267 -3.437,2.649 -7.358,4.547 -11.762,5.693 -4.369,1.11 -11.19,1.665 -20.464,1.665 h -3.384 z m 105.754,-21.924 c 0,-5.045 -1.384,-9.098 -4.151,-12.158 -2.734,-3.092 -6.315,-4.639 -10.742,-4.639 -4.59,0 -8.171,1.416 -10.742,4.248 -2.571,2.832 -3.858,6.787 -3.858,11.866 0,5.403 1.286,9.57 3.858,12.5 2.604,2.929 6.282,4.394 11.035,4.394 4.557,0 8.122,-1.416 10.693,-4.248 2.605,-2.865 3.907,-6.852 3.907,-11.963 z m 7.422,-22.754 v 44.678 h -7.422 v -8.105 c -1.791,3.255 -4.086,5.745 -6.885,7.47 -2.767,1.693 -5.876,2.539 -9.326,2.539 -6.413,0 -11.589,-2.197 -15.528,-6.592 -3.906,-4.427 -5.859,-10.27 -5.859,-17.529 0,-7.357 1.904,-13.2 5.713,-17.529 3.808,-4.362 8.903,-6.543 15.283,-6.543 3.744,0 6.983,0.846 9.717,2.539 2.767,1.66 4.997,4.15 6.689,7.471 v -8.399 z m 10.503,6.299 h -8.203 v -6.299 h 8.203 v -18.017 h 7.813 v 18.018 h 8.203 v 6.299 h -8.203 v 38.378 h -7.813 z m 52.887,16.455 c 0,-5.045 -1.383,-9.098 -4.15,-12.158 -2.735,-3.092 -6.315,-4.639 -10.742,-4.639 -4.59,0 -8.171,1.416 -10.743,4.248 -2.572,2.832 -3.857,6.787 -3.857,11.866 0,5.403 1.286,9.57 3.857,12.5 2.605,2.929 6.283,4.394 11.036,4.394 4.557,0 8.121,-1.416 10.693,-4.248 2.604,-2.865 3.906,-6.852 3.906,-11.963 z m 7.422,-22.754 v 44.678 h -7.422 v -8.105 c -1.79,3.255 -4.085,5.745 -6.885,7.47 -2.767,1.693 -5.875,2.539 -9.326,2.539 -6.413,0 -11.588,-2.197 -15.527,-6.592 -3.906,-4.427 -5.86,-10.27 -5.86,-17.529 0,-7.357 1.905,-13.2 5.713,-17.529 3.809,-4.362 8.903,-6.543 15.284,-6.543 3.743,0 6.982,0.846 9.716,2.539 2.767,1.66 4.997,4.15 6.69,7.471 v -8.399 z m 27.465,35.869 h 5.962 c 9.668,0 16.364,-0.411 20.088,-1.235 3.724,-0.859 6.821,-2.31 9.292,-4.351 3.223,-2.685 5.676,-6.14 7.358,-10.366 1.683,-4.261 2.525,-9.131 2.525,-14.609 0,-5.514 -0.842,-10.348 -2.525,-14.502 -1.647,-4.189 -4.099,-7.645 -7.358,-10.366 -2.471,-2.077 -5.622,-3.545 -9.453,-4.404 -3.796,-0.895 -10.438,-1.343 -19.927,-1.343 h -5.962 z m -9.453,8.809 V 98.710822 h 15.093 c 11.172,0 19.031,0.573 23.579,1.718998 4.583,1.11 8.594,2.99 12.031,5.64 4.512,3.473 7.932,7.913 10.259,13.32 2.327,5.407 3.491,11.637 3.491,18.691 0,7.019 -1.163,13.231 -3.491,18.638 -2.292,5.371 -5.711,9.793 -10.259,13.267 -3.437,2.649 -7.358,4.547 -11.762,5.693 -4.369,1.11 -11.19,1.665 -20.464,1.665 h -3.384 z m 103.263,-27.393 c -0.26,-3.938 -1.578,-6.966 -3.955,-9.082 -2.343,-2.148 -5.566,-3.222 -9.668,-3.222 -3.711,0 -6.803,1.123 -9.277,3.369 -2.474,2.213 -3.906,5.192 -4.297,8.935 z m 8.204,6.202 h -35.401 v 0.683 c 0,4.785 1.367,8.659 4.102,11.621 2.734,2.93 6.299,4.395 10.693,4.395 2.995,0 5.697,-0.798 8.106,-2.393 2.408,-1.627 4.541,-4.069 6.396,-7.324 l 5.811,3.906 c -2.247,4.037 -5.111,7.08 -8.594,9.131 -3.483,2.051 -7.52,3.076 -12.11,3.076 -6.803,0 -12.304,-2.246 -16.503,-6.738 -4.199,-4.492 -6.299,-10.384 -6.299,-17.676 0,-6.998 2.083,-12.728 6.25,-17.187 4.167,-4.459 9.521,-6.689 16.064,-6.689 6.608,0 11.833,2.116 15.674,6.348 3.874,4.232 5.811,10.01 5.811,17.334 v 1.514 z m 20.269,23.974 -22.119,-47.461 h 8.594 l 13.427,31.201 13.477,-31.201 h 8.594 z"
         fill="#f4f6f6"
         id="path3"
         style="display:inline" /></g></g></svg>
