<svg xmlns="http://www.w3.org/2000/svg" width="256" height="256" fill="none" xmlns:v="https://vecta.io/nano"><g stroke="#293c47" fill="#fff"><g stroke-width="6"><path transform="rotate(326.931 48.174 117.038)" d="M48.174 117.038h25.996v148.394H48.174z"/><rect x="-4.217" y="-.465" width="25.996" height="141.051" rx="12.998" transform="matrix(-.625386 -.780316 -.780316 .625386 154.205 21.5025)"/><rect x="210.814" y="66.174" width="25.996" height="95.054" rx="12.998" transform="rotate(129.777 210.814 66.174)"/></g><circle cx="139.271" cy="22.848" r="3.396" stroke-width="3"/><g stroke-width="6"><circle cx="55.886" cy="94.975" r="25.8"/><circle cx="197.173" cy="73.629" r="20.04"/></g><g stroke-width="4"><circle cx="56.216" cy="95.314" r="4.099"/><circle cx="197.169" cy="73.629" r="4.099"/></g><g stroke-width="5"><path d="M94.633 222.502h73.608v18.718H94.633z"/><path d="M79.047 234.699h104.78v18.718H79.047z"/></g></g><path d="M187.277 91.836L180 96.509l-7.277 4.673v13.056l14.554 9.792m20.18-32.194l7.277 4.673 7.277 4.673v13.056l-14.554 9.792" stroke="#293c47" stroke-width="6"/></svg>