<svg xmlns="http://www.w3.org/2000/svg" width="322" height="320" fill="none" xmlns:v="https://vecta.io/nano"><path d="M106.769 48L5 103.036V222.964L106.769 278L211 222.964V103.036L106.769 48Z" fill="#fff" stroke="#293c47" stroke-width="8"/><g fill="#293c47"><path d="M42.993 215V107.773h12.598v47.681l45.044-47.681h15.234L69.873 156.04 120.41 215h-16.479l-48.34-57.715V215H42.993zm92.074-48.12V215h-12.451V107.773h22.486c7.861 0 13.647.415 17.358 1.246s6.934 2.197 9.668 4.101c3.418 2.442 6.079 5.786 7.983 10.034 1.953 4.248 2.93 8.96 2.93 14.136s-.977 9.888-2.93 14.136c-1.904 4.248-4.565 7.593-7.983 10.034-2.734 1.953-5.957 3.345-9.668 4.175-3.662.83-9.448 1.245-17.358 1.245h-3.589-6.446zm0-11.572h6.446c10.937 0 18.286-1.27 22.046-3.809 3.808-2.588 5.712-7.08 5.712-13.477 0-6.835-1.953-11.645-5.859-14.428-3.857-2.783-11.157-4.175-21.899-4.175h-6.446v35.889zm93.527 43.688h2.71c4.394 0 7.438-.187 9.131-.561 1.692-.391 3.1-1.05 4.223-1.978 1.465-1.221 2.58-2.791 3.345-4.712.765-1.937 1.147-4.15 1.147-6.641 0-2.506-.382-4.703-1.147-6.591-.749-1.905-1.864-3.475-3.345-4.712-1.123-.944-2.555-1.612-4.297-2.002-1.725-.407-4.744-.611-9.057-.611h-2.71v27.808zM224.297 203v-35.742h6.86c5.078 0 8.651.26 10.718.781 2.083.505 3.906 1.359 5.469 2.564 2.051 1.578 3.605 3.597 4.663 6.054s1.587 5.29 1.587 8.496c0 3.19-.529 6.014-1.587 8.472-1.042 2.441-2.596 4.451-4.663 6.03-1.563 1.205-3.345 2.067-5.347 2.588-1.986.505-5.086.757-9.302.757h-1.538-6.86zm57.733-13.696c-.13-1.97-.789-3.483-1.977-4.541-1.172-1.075-2.783-1.612-4.834-1.612-1.856 0-3.402.562-4.639 1.685-1.237 1.107-1.953 2.596-2.148 4.468h13.598zm4.102 3.1h-17.7v.342c0 2.393.683 4.33 2.05 5.811 1.368 1.464 3.15 2.197 5.347 2.197 1.497 0 2.848-.399 4.053-1.196 1.204-.814 2.27-2.035 3.198-3.662l2.905 1.953c-1.123 2.018-2.555 3.54-4.297 4.565s-3.759 1.538-6.054 1.538c-3.402 0-6.153-1.123-8.252-3.369s-3.15-5.192-3.15-8.838c0-3.499 1.042-6.364 3.125-8.594s4.761-3.344 8.033-3.344c3.304 0 5.916 1.058 7.837 3.173 1.936 2.116 2.905 5.005 2.905 8.667v.757zm19.135 11.988l-11.06-23.731h4.297l6.714 15.601 6.738-15.601h4.297l-10.986 23.731z"/><path d="M228.594 154.996h2.71c4.394 0 7.438-.187 9.131-.561 1.692-.391 3.1-1.05 4.223-1.978 1.465-1.221 2.58-2.791 3.345-4.712.765-1.937 1.147-4.15 1.147-6.641 0-2.506-.382-4.703-1.147-6.591-.749-1.905-1.864-3.475-3.345-4.712-1.123-.944-2.555-1.612-4.297-2.002-1.725-.407-4.744-.611-9.057-.611h-2.71v27.808zM224.297 159v-35.742h6.86c5.078 0 8.651.26 10.718.781 2.083.505 3.906 1.359 5.469 2.564 2.051 1.578 3.605 3.597 4.663 6.054s1.587 5.29 1.587 8.496c0 3.19-.529 6.014-1.587 8.472-1.042 2.441-2.596 4.451-4.663 6.03-1.563 1.205-3.345 2.067-5.347 2.588-1.986.505-5.086.757-9.302.757h-1.538-6.86zm50.978-10.962c0-2.523-.691-4.549-2.075-6.079-1.367-1.546-3.157-2.319-5.371-2.319-2.295 0-4.085.708-5.371 2.124s-1.929 3.393-1.929 5.932c0 2.702.643 4.785 1.929 6.25 1.302 1.465 3.141 2.198 5.518 2.198 2.278 0 4.06-.708 5.346-2.124 1.302-1.433 1.953-3.427 1.953-5.982zm3.711-11.377V159h-3.711v-4.053c-.895 1.628-2.042 2.873-3.442 3.736-1.383.846-2.938 1.269-4.663 1.269-3.206 0-5.794-1.098-7.764-3.296-1.953-2.213-2.929-5.135-2.929-8.764 0-3.679.952-6.6 2.856-8.765 1.904-2.181 4.452-3.272 7.642-3.272 1.871 0 3.491.424 4.858 1.27 1.383.83 2.498 2.075 3.345 3.735v-4.199h3.808zm6.252 3.15h-4.101v-3.15h4.101v-9.009h3.907v9.009h4.101v3.15h-4.101V159h-3.907v-19.189zm27.444 8.227c0-2.523-.692-4.549-2.076-6.079-1.367-1.546-3.157-2.319-5.371-2.319-2.295 0-4.085.708-5.371 2.124s-1.928 3.393-1.928 5.932c0 2.702.642 4.785 1.928 6.25 1.302 1.465 3.142 2.198 5.518 2.198 2.278 0 4.061-.708 5.347-2.124 1.302-1.433 1.953-3.427 1.953-5.982zm3.711-11.377V159h-3.711v-4.053c-.896 1.628-2.043 2.873-3.443 3.736-1.383.846-2.938 1.269-4.663 1.269-3.206 0-5.794-1.098-7.764-3.296-1.953-2.213-2.929-5.135-2.929-8.764 0-3.679.952-6.6 2.856-8.765 1.905-2.181 4.452-3.272 7.642-3.272 1.872 0 3.491.424 4.858 1.27 1.384.83 2.499 2.075 3.345 3.735v-4.199h3.809z"/></g></svg>